<mxfile host="app.diagrams.net" agent="Mozilla/5.0 (Windows NT 10.0; Win64; x64) AppleWebKit/537.36 (KHTML, like Gecko) Chrome/131.0.0.0 Safari/537.36" version="25.0.3">
  <diagram id="R7aYbRGNpZqleTm28oLi" name="Page-1">
    <mxGraphModel dx="1687" dy="878" grid="1" gridSize="10" guides="1" tooltips="1" connect="1" arrows="1" fold="1" page="1" pageScale="1" pageWidth="850" pageHeight="1100" math="0" shadow="0">
      <root>
        <mxCell id="0" />
        <mxCell id="1" parent="0" />
        <mxCell id="Jkr-mviQvhK9R2Y032hn-16" style="edgeStyle=orthogonalEdgeStyle;rounded=0;orthogonalLoop=1;jettySize=auto;html=1;entryX=0.5;entryY=0;entryDx=0;entryDy=0;" edge="1" parent="1" source="Jkr-mviQvhK9R2Y032hn-1" target="Jkr-mviQvhK9R2Y032hn-3">
          <mxGeometry relative="1" as="geometry" />
        </mxCell>
        <mxCell id="Jkr-mviQvhK9R2Y032hn-1" value="&lt;font style=&quot;font-size: 24px;&quot;&gt;start&lt;/font&gt;" style="strokeWidth=2;html=1;shape=mxgraph.flowchart.start_1;whiteSpace=wrap;" vertex="1" parent="1">
          <mxGeometry x="387.5" y="50" width="100" height="60" as="geometry" />
        </mxCell>
        <mxCell id="Jkr-mviQvhK9R2Y032hn-2" value="&lt;font style=&quot;font-size: 24px;&quot;&gt;end&lt;/font&gt;" style="strokeWidth=2;html=1;shape=mxgraph.flowchart.start_1;whiteSpace=wrap;" vertex="1" parent="1">
          <mxGeometry x="387.5" y="760" width="100" height="60" as="geometry" />
        </mxCell>
        <mxCell id="Jkr-mviQvhK9R2Y032hn-17" style="edgeStyle=orthogonalEdgeStyle;rounded=0;orthogonalLoop=1;jettySize=auto;html=1;entryX=0.5;entryY=0;entryDx=0;entryDy=0;" edge="1" parent="1" source="Jkr-mviQvhK9R2Y032hn-3" target="Jkr-mviQvhK9R2Y032hn-4">
          <mxGeometry relative="1" as="geometry" />
        </mxCell>
        <mxCell id="Jkr-mviQvhK9R2Y032hn-3" value="file = fopen(a15-3.txt)" style="rounded=1;whiteSpace=wrap;html=1;absoluteArcSize=1;arcSize=14;strokeWidth=2;" vertex="1" parent="1">
          <mxGeometry x="375" y="170" width="125" height="70" as="geometry" />
        </mxCell>
        <mxCell id="Jkr-mviQvhK9R2Y032hn-6" style="edgeStyle=orthogonalEdgeStyle;rounded=0;orthogonalLoop=1;jettySize=auto;html=1;entryX=0.5;entryY=0;entryDx=0;entryDy=0;" edge="1" parent="1" source="Jkr-mviQvhK9R2Y032hn-4" target="Jkr-mviQvhK9R2Y032hn-5">
          <mxGeometry relative="1" as="geometry" />
        </mxCell>
        <mxCell id="Jkr-mviQvhK9R2Y032hn-14" style="edgeStyle=orthogonalEdgeStyle;rounded=0;orthogonalLoop=1;jettySize=auto;html=1;entryX=0.5;entryY=0;entryDx=0;entryDy=0;" edge="1" parent="1" source="Jkr-mviQvhK9R2Y032hn-4" target="Jkr-mviQvhK9R2Y032hn-13">
          <mxGeometry relative="1" as="geometry" />
        </mxCell>
        <mxCell id="Jkr-mviQvhK9R2Y032hn-4" value="while(name, age, gpa, gender = fscanf(file))" style="rhombus;whiteSpace=wrap;html=1;" vertex="1" parent="1">
          <mxGeometry x="330" y="300" width="215" height="140" as="geometry" />
        </mxCell>
        <mxCell id="Jkr-mviQvhK9R2Y032hn-10" style="edgeStyle=orthogonalEdgeStyle;rounded=0;orthogonalLoop=1;jettySize=auto;html=1;entryX=0.5;entryY=0;entryDx=0;entryDy=0;" edge="1" parent="1" source="Jkr-mviQvhK9R2Y032hn-5" target="Jkr-mviQvhK9R2Y032hn-9">
          <mxGeometry relative="1" as="geometry" />
        </mxCell>
        <mxCell id="Jkr-mviQvhK9R2Y032hn-5" value="ouput name, age, gpal, gender" style="shape=parallelogram;perimeter=parallelogramPerimeter;whiteSpace=wrap;html=1;fixedSize=1;" vertex="1" parent="1">
          <mxGeometry x="660" y="390" width="220" height="70" as="geometry" />
        </mxCell>
        <mxCell id="Jkr-mviQvhK9R2Y032hn-11" style="edgeStyle=orthogonalEdgeStyle;rounded=0;orthogonalLoop=1;jettySize=auto;html=1;entryX=1;entryY=1;entryDx=0;entryDy=0;" edge="1" parent="1" source="Jkr-mviQvhK9R2Y032hn-9" target="Jkr-mviQvhK9R2Y032hn-4">
          <mxGeometry relative="1" as="geometry" />
        </mxCell>
        <mxCell id="Jkr-mviQvhK9R2Y032hn-9" value="gpa &amp;gt; maxGpa&lt;div&gt;strcpy(maxName, name)&lt;/div&gt;" style="rhombus;whiteSpace=wrap;html=1;" vertex="1" parent="1">
          <mxGeometry x="662.5" y="500" width="215" height="140" as="geometry" />
        </mxCell>
        <mxCell id="Jkr-mviQvhK9R2Y032hn-15" style="edgeStyle=orthogonalEdgeStyle;rounded=0;orthogonalLoop=1;jettySize=auto;html=1;" edge="1" parent="1" source="Jkr-mviQvhK9R2Y032hn-13" target="Jkr-mviQvhK9R2Y032hn-2">
          <mxGeometry relative="1" as="geometry" />
        </mxCell>
        <mxCell id="Jkr-mviQvhK9R2Y032hn-13" value="output maxName &quot;grade&quot; maxGpa" style="shape=parallelogram;perimeter=parallelogramPerimeter;whiteSpace=wrap;html=1;fixedSize=1;" vertex="1" parent="1">
          <mxGeometry x="327.5" y="610" width="220" height="70" as="geometry" />
        </mxCell>
      </root>
    </mxGraphModel>
  </diagram>
</mxfile>
